# xmcd
#
# Track frame offsets:
#	150
#	25784
#	48291
#	67913
#	88920
#	106010
#	124579
#	147926
#	171906
#	202988
#	225552
#	244869
#	264209
#	284706
#	306530
#
# Disc length: 4383 seconds
#
# Revision: 1
# Processed by: cddbd v1.5PL3 Copyright (c) Steve Scherf et al.
# Submitted via: CDex 1.50Beta5
#
DISCID=cf111d0f
DTITLE=米倉千尋 - Little Voice
DYEAR=2001
DGENRE=Pop
TTITLE0=I Believe〜Little Voice version〜
TTITLE1=永遠の扉
TTITLE2=嵐の中で輝いて
TTITLE3=WILL
TTITLE4=犬と赤いフリスビー
TTITLE5=TRY ON MY DREAMS
TTITLE6=トムソーヤの冒険
TTITLE7=WINTER WISH
TTITLE8=陽のあたる場所
TTITLE9=約束
TTITLE10=桜色の街
TTITLE11=FRIENDS
TTITLE12=未来の二人に
TTITLE13=ライラ・ライラ・ライ
TTITLE14=いつの日か
EXTD=
EXTT0=
EXTT1=
EXTT2=
EXTT3=
EXTT4=
EXTT5=
EXTT6=
EXTT7=
EXTT8=
EXTT9=
EXTT10=
EXTT11=
EXTT12=
EXTT13=
EXTT14=
PLAYORDER=
